HIERARCHY
ROOT COG
{
	OFFSET 0.000000 0.103240 1.001711
	CHANNELS 6 Xposition Yposition Zposition Xrotation Yrotation Zrotation
	JOINT Back
	{
		OFFSET -0.000000 -0.047720 -0.000292
		CHANNELS 3 Xrotation Yrotation Zrotation
		JOINT Neck
		{
			OFFSET 0.000000 0.009902 0.479940
			CHANNELS 3 Xrotation Yrotation Zrotation
			JOINT Head
			{
				OFFSET 0.000000 0.000000 0.114125
				CHANNELS 3 Xrotation Yrotation Zrotation
				End Site
				{
					OFFSET -0.000000 -0.035047 0.203765
				}
			}
		}
		JOINT Shoulder.Left
		{
			OFFSET 0.000000 0.009902 0.479940
			CHANNELS 3 Xrotation Yrotation Zrotation
			JOINT Upperarm.Left
			{
				OFFSET 0.171189 0.023766 0.000000
				CHANNELS 3 Xrotation Yrotation Zrotation
				JOINT Forearm.Left
				{
					OFFSET 0.299995 0.024210 0.001595
					CHANNELS 3 Xrotation Yrotation Zrotation
					JOINT Hand.Left
					{
						OFFSET 0.246916 -0.014695 0.015059
						CHANNELS 3 Xrotation Yrotation Zrotation
						JOINT Fingers1.Left
						{
							OFFSET 0.111888 -0.008712 0.003838
							CHANNELS 6 Xposition Yposition Zposition Xrotation Yrotation Zrotation
							JOINT Fingers2.Left
							{
								OFFSET 0.049755 -0.000245 0.000000
								CHANNELS 3 Xrotation Yrotation Zrotation
								End Site
								{
									OFFSET 0.051310 -0.000955 0.000000
								}
							}
						}
						JOINT Thumb1.Left
						{
							OFFSET 0.042902 -0.045156 -0.007728
							CHANNELS 6 Xposition Yposition Zposition Xrotation Yrotation Zrotation
							JOINT Thumb2.Left
							{
								OFFSET 0.012928 -0.056380 0.001561
								CHANNELS 3 Xrotation Yrotation Zrotation
								End Site
								{
									OFFSET 0.009035 -0.037598 0.001873
								}
							}
						}
					}
				}
			}
		}
		JOINT Shoulder.Right
		{
			OFFSET 0.000000 0.009902 0.479940
			CHANNELS 3 Xrotation Yrotation Zrotation
			JOINT Upperarm.Right
			{
				OFFSET -0.171189 0.023766 0.000000
				CHANNELS 3 Xrotation Yrotation Zrotation
				JOINT Forearm.Right
				{
					OFFSET -0.299995 0.024210 0.001595
					CHANNELS 3 Xrotation Yrotation Zrotation
					JOINT Hand.Right
					{
						OFFSET -0.246916 -0.014695 0.015059
						CHANNELS 3 Xrotation Yrotation Zrotation
						JOINT Fingers1.Right
						{
							OFFSET -0.111888 -0.008712 0.003838
							CHANNELS 3 Xrotation Yrotation Zrotation
							JOINT Fingers2.Right
							{
								OFFSET -0.049755 -0.000245 0.000000
								CHANNELS 3 Xrotation Yrotation Zrotation
								End Site
								{
									OFFSET -0.051310 -0.000955 0.000000
								}
							}
						}
						JOINT Thumb1.Right
						{
							OFFSET -0.042902 -0.045156 -0.007728
							CHANNELS 6 Xposition Yposition Zposition Xrotation Yrotation Zrotation
							JOINT Thumb2.Right
							{
								OFFSET -0.012928 -0.056380 0.001561
								CHANNELS 3 Xrotation Yrotation Zrotation
								End Site
								{
									OFFSET -0.009035 -0.037598 0.001873
								}
							}
						}
					}
				}
			}
		}
	}
	JOINT Hip
	{
		OFFSET -0.000000 -0.047720 -0.000292
		CHANNELS 3 Xrotation Yrotation Zrotation
		JOINT Thigh.Left
		{
			OFFSET 0.099312 -0.010710 -0.032880
			CHANNELS 6 Xposition Yposition Zposition Xrotation Yrotation Zrotation
			JOINT Shin.Left
			{
				OFFSET 0.042563 -0.006785 -0.409860
				CHANNELS 3 Xrotation Yrotation Zrotation
				JOINT Foot.Left
				{
					OFFSET 0.052065 0.047751 -0.491449
					CHANNELS 3 Xrotation Yrotation Zrotation
					JOINT Toes.Left
					{
						OFFSET 0.000155 -0.140649 -0.037025
						CHANNELS 3 Xrotation Yrotation Zrotation
						End Site
						{
							OFFSET -0.000003 -0.078803 -0.008141
						}
					}
				}
			}
		}
		JOINT Thigh.Right
		{
			OFFSET -0.099312 -0.010710 -0.032880
			CHANNELS 6 Xposition Yposition Zposition Xrotation Yrotation Zrotation
			JOINT Shin.Right
			{
				OFFSET -0.042563 -0.006785 -0.409860
				CHANNELS 3 Xrotation Yrotation Zrotation
				JOINT Foot.Right
				{
					OFFSET -0.052065 0.047751 -0.491449
					CHANNELS 3 Xrotation Yrotation Zrotation
					JOINT Toes.Right
					{
						OFFSET -0.000155 -0.140649 -0.037025
						CHANNELS 3 Xrotation Yrotation Zrotation
						End Site
						{
							OFFSET 0.000003 -0.078803 -0.008141
						}
					}
				}
			}
		}
	}
}
MOTION
Frames: 4
Frame Time: 0.040000
-0.030439 0.103189 1.009913 -0.000000 0.000000 0.000000 1.209805 -1.128647 12.414747 -0.000000 0.000000 -11.598945 2.109531 -0.066484 0.067145 0.000000 -0.000000 0.000001 14.080052 68.925317 6.423223 0.795382 0.614451 -11.332413 -6.499781 17.482728 -10.310644 0.111888 -0.008712 0.003838 -0.000001 -0.000000 -0.000000 0.000001 -0.000000 -0.000000 0.042902 -0.045156 -0.007728 -0.000000 -0.000001 0.000000 0.000001 -0.000003 -0.000000 0.000000 0.000000 0.000001 -11.629642 -70.759524 -7.443964 0.199225 -0.178427 3.010053 -7.059821 -24.532195 -5.539443 0.000000 -0.000001 -0.000001 0.000000 -0.000000 0.000000 -0.042902 -0.045156 -0.007728 0.000000 0.000002 -0.000001 0.000000 0.000003 -0.000000 -0.138106 -2.789230 -6.032645 0.099312 -0.010710 -0.032880 -30.835845 4.098809 2.245439 68.641618 -2.162998 8.925237 -1.708896 -1.940768 5.626441 -0.000000 -0.000000 -0.000001 -0.099312 -0.010710 -0.032880 14.736712 -4.442072 0.476643 -3.754189 -0.409276 0.345918 -3.102022 0.336423 0.831590 -0.000002 0.000000 0.000000 
-0.023855 0.103222 1.004548 -0.000000 0.000000 0.000000 2.569953 -0.858746 14.505232 -0.000000 0.000000 -13.228783 1.484235 -0.042514 0.066517 -0.000000 -0.000000 -0.000003 14.995824 68.551371 6.690665 0.694538 0.549726 -9.983051 -6.817379 17.772256 -8.306200 0.111888 -0.008712 0.003838 -0.000001 0.000000 -0.000000 -0.000001 0.000000 -0.000000 0.042902 -0.045156 -0.007728 -0.000001 -0.000001 0.000001 0.000001 -0.000003 0.000002 -0.000000 -0.000000 -0.000001 -13.346040 -70.656640 -7.600833 0.255832 -0.225805 3.840874 -6.963860 -24.619866 -4.043003 0.000001 -0.000000 -0.000000 -0.000000 0.000001 -0.000001 -0.042902 -0.045156 -0.007728 0.000001 0.000002 -0.000001 0.000001 0.000001 0.000001 -0.128392 -2.168853 -7.092645 0.099312 -0.010710 -0.032880 -29.894526 3.884913 2.730247 56.261685 -2.602995 7.226593 -1.708896 -1.940768 5.626442 -0.000002 -0.000000 0.000000 -0.099312 -0.010710 -0.032880 17.136743 -4.433491 0.401180 -3.998383 -0.436680 0.367488 -3.283846 0.423263 0.900876 0.000000 -0.000000 0.000000 
-0.017141 0.103251 0.999813 -0.000000 0.000000 0.000000 3.754485 -0.572745 16.200387 0.000000 0.000000 -14.507322 0.932291 -0.021334 0.066074 -0.000000 0.000000 -0.000001 15.707958 68.258732 6.908947 0.595854 0.483063 -8.642105 -7.173745 18.038784 -6.133815 0.111888 -0.008712 0.003838 -0.000002 0.000001 0.000000 -0.000000 0.000000 -0.000000 0.042902 -0.045156 -0.007728 -0.000001 -0.000001 0.000002 -0.000000 -0.000001 -0.000001 -0.000000 0.000000 -0.000002 -14.686020 -70.574863 -7.716825 0.323179 -0.280388 4.816628 -6.843919 -24.675624 -2.565239 -0.000001 -0.000000 0.000000 0.000001 -0.000000 0.000001 -0.042902 -0.045156 -0.007728 -0.000001 -0.000000 -0.000000 0.000001 0.000003 0.000000 -0.103899 -1.544436 -7.956214 0.099312 -0.010710 -0.032880 -27.061787 3.323697 4.126624 34.615303 -2.470922 4.175078 -1.708896 -1.940768 5.626441 0.000001 -0.000000 0.000000 -0.099312 -0.010710 -0.032880 19.108025 -4.429925 0.318354 -4.202538 -0.459662 0.385432 -3.427931 0.520623 0.964381 -0.000002 0.000001 0.000001 
-0.010742 0.103273 0.996192 -0.000000 0.000000 0.000000 4.647643 -0.314503 17.413897 0.000000 0.000000 -15.421351 0.510336 -0.005114 0.065723 -0.000000 0.000000 0.000002 16.213909 68.049926 7.069443 0.500592 0.415445 -7.326852 -7.560897 18.276792 -3.831160 0.111888 -0.008712 0.003838 -0.000001 0.000001 0.000000 0.000000 -0.000000 0.000002 0.042902 -0.045156 -0.007728 -0.000001 -0.000001 0.000002 0.000000 -0.000001 -0.000002 -0.000000 -0.000000 0.000001 -15.640495 -70.515829 -7.795934 0.401193 -0.341290 5.930748 -6.704851 -24.691615 -1.122126 0.000000 -0.000001 0.000000 0.000000 -0.000000 -0.000000 -0.042902 -0.045156 -0.007728 -0.000000 0.000001 0.000000 0.000000 0.000005 -0.000000 -0.070262 -0.958022 -8.577178 0.099312 -0.010710 -0.032880 -22.941880 2.709178 5.994765 11.587351 -1.106206 1.223183 -1.708896 -1.940768 5.626441 -0.000001 0.000000 -0.000000 -0.099312 -0.010710 -0.032880 20.542171 -4.430906 0.246696 -4.363736 -0.477855 0.399542 -3.532363 0.628040 1.021419 0.000001 -0.000000 0.000000 
